<mxfile host="app.diagrams.net" modified="2020-12-03T15:21:24.965Z" agent="5.0 (Windows)" etag="Wa0qQsjjwaxY53RV4eiL" version="13.10.6" type="github">
  <diagram id="mn2iuwzB_aQ1IAJR_mXy" name="Page-1">
    <mxGraphModel dx="1038" dy="575" grid="1" gridSize="10" guides="1" tooltips="1" connect="1" arrows="1" fold="1" page="1" pageScale="1" pageWidth="827" pageHeight="1169" math="0" shadow="0">
      <root>
        <mxCell id="0" />
        <mxCell id="1" parent="0" />
        <mxCell id="KtAMPXiXac6CL4gWcL4E-10" value="" style="shape=umlLifeline;participant=umlBoundary;perimeter=lifelinePerimeter;whiteSpace=wrap;html=1;container=1;collapsible=0;recursiveResize=0;verticalAlign=top;spacingTop=36;outlineConnect=0;" vertex="1" parent="1">
          <mxGeometry x="200" y="20" width="80" height="660" as="geometry" />
        </mxCell>
        <mxCell id="KtAMPXiXac6CL4gWcL4E-14" value="" style="html=1;points=[];perimeter=orthogonalPerimeter;" vertex="1" parent="KtAMPXiXac6CL4gWcL4E-10">
          <mxGeometry x="38" y="85" width="12" height="35" as="geometry" />
        </mxCell>
        <mxCell id="KtAMPXiXac6CL4gWcL4E-27" value="" style="html=1;points=[];perimeter=orthogonalPerimeter;" vertex="1" parent="KtAMPXiXac6CL4gWcL4E-10">
          <mxGeometry x="35" y="130" width="10" height="360" as="geometry" />
        </mxCell>
        <mxCell id="KtAMPXiXac6CL4gWcL4E-12" value="" style="shape=umlLifeline;participant=umlActor;perimeter=lifelinePerimeter;whiteSpace=wrap;html=1;container=1;collapsible=0;recursiveResize=0;verticalAlign=top;spacingTop=36;outlineConnect=0;" vertex="1" parent="1">
          <mxGeometry x="30" y="20" width="50" height="680" as="geometry" />
        </mxCell>
        <mxCell id="KtAMPXiXac6CL4gWcL4E-13" value="" style="html=1;points=[];perimeter=orthogonalPerimeter;" vertex="1" parent="KtAMPXiXac6CL4gWcL4E-12">
          <mxGeometry x="20" y="75" width="10" height="425" as="geometry" />
        </mxCell>
        <mxCell id="KtAMPXiXac6CL4gWcL4E-16" value="NhapThongTinSanPham()" style="html=1;verticalAlign=bottom;endArrow=block;exitX=0.5;exitY=0.045;exitDx=0;exitDy=0;exitPerimeter=0;" edge="1" parent="1" source="KtAMPXiXac6CL4gWcL4E-13" target="KtAMPXiXac6CL4gWcL4E-10">
          <mxGeometry width="80" relative="1" as="geometry">
            <mxPoint x="170" y="199.5" as="sourcePoint" />
            <mxPoint x="250" y="199.5" as="targetPoint" />
          </mxGeometry>
        </mxCell>
        <mxCell id="KtAMPXiXac6CL4gWcL4E-17" value="" style="shape=umlLifeline;participant=umlControl;perimeter=lifelinePerimeter;whiteSpace=wrap;html=1;container=1;collapsible=0;recursiveResize=0;verticalAlign=top;spacingTop=36;outlineConnect=0;" vertex="1" parent="1">
          <mxGeometry x="490" y="10" width="65" height="510" as="geometry" />
        </mxCell>
        <mxCell id="KtAMPXiXac6CL4gWcL4E-8" value="DieuKhienThemSanPham" style="text;html=1;align=center;verticalAlign=middle;resizable=0;points=[];autosize=1;" vertex="1" parent="KtAMPXiXac6CL4gWcL4E-17">
          <mxGeometry x="-45" y="40" width="150" height="20" as="geometry" />
        </mxCell>
        <mxCell id="KtAMPXiXac6CL4gWcL4E-31" value="" style="html=1;points=[];perimeter=orthogonalPerimeter;" vertex="1" parent="KtAMPXiXac6CL4gWcL4E-17">
          <mxGeometry x="27.5" y="160" width="10" height="320" as="geometry" />
        </mxCell>
        <mxCell id="KtAMPXiXac6CL4gWcL4E-18" value="" style="shape=umlLifeline;participant=umlEntity;perimeter=lifelinePerimeter;whiteSpace=wrap;html=1;container=1;collapsible=0;recursiveResize=0;verticalAlign=top;spacingTop=36;outlineConnect=0;" vertex="1" parent="1">
          <mxGeometry x="690" y="20" width="120" height="500" as="geometry" />
        </mxCell>
        <mxCell id="KtAMPXiXac6CL4gWcL4E-33" value="" style="html=1;points=[];perimeter=orthogonalPerimeter;" vertex="1" parent="KtAMPXiXac6CL4gWcL4E-18">
          <mxGeometry x="15" y="180" width="10" height="260" as="geometry" />
        </mxCell>
        <mxCell id="KtAMPXiXac6CL4gWcL4E-35" value="Alternative" style="shape=umlFrame;whiteSpace=wrap;html=1;" vertex="1" parent="KtAMPXiXac6CL4gWcL4E-18">
          <mxGeometry x="-580" y="230" width="700" height="250" as="geometry" />
        </mxCell>
        <mxCell id="KtAMPXiXac6CL4gWcL4E-36" value="" style="endArrow=none;dashed=1;html=1;exitX=0.004;exitY=0.68;exitDx=0;exitDy=0;exitPerimeter=0;entryX=0.999;entryY=0.656;entryDx=0;entryDy=0;entryPerimeter=0;" edge="1" parent="KtAMPXiXac6CL4gWcL4E-18" source="KtAMPXiXac6CL4gWcL4E-35" target="KtAMPXiXac6CL4gWcL4E-35">
          <mxGeometry width="50" height="50" relative="1" as="geometry">
            <mxPoint x="-470.00000000000006" y="710" as="sourcePoint" />
            <mxPoint x="225.79999999999995" y="713" as="targetPoint" />
          </mxGeometry>
        </mxCell>
        <mxCell id="KtAMPXiXac6CL4gWcL4E-29" value="" style="html=1;verticalAlign=bottom;endArrow=block;entryX=0;entryY=0.12;entryDx=0;entryDy=0;entryPerimeter=0;" edge="1" parent="1" source="KtAMPXiXac6CL4gWcL4E-12" target="KtAMPXiXac6CL4gWcL4E-27">
          <mxGeometry x="-0.0085" y="15" width="80" relative="1" as="geometry">
            <mxPoint x="370" y="300" as="sourcePoint" />
            <mxPoint x="230" y="263" as="targetPoint" />
            <mxPoint as="offset" />
          </mxGeometry>
        </mxCell>
        <mxCell id="KtAMPXiXac6CL4gWcL4E-30" value="ClickSubmit()" style="text;html=1;align=center;verticalAlign=middle;resizable=0;points=[];autosize=1;" vertex="1" parent="1">
          <mxGeometry x="100" y="140" width="90" height="20" as="geometry" />
        </mxCell>
        <mxCell id="KtAMPXiXac6CL4gWcL4E-32" value="GuiThongTinTaoSanPham()" style="html=1;verticalAlign=bottom;endArrow=block;exitX=1.1;exitY=0.193;exitDx=0;exitDy=0;exitPerimeter=0;" edge="1" parent="1" source="KtAMPXiXac6CL4gWcL4E-27" target="KtAMPXiXac6CL4gWcL4E-31">
          <mxGeometry x="-0.0129" y="9" width="80" relative="1" as="geometry">
            <mxPoint x="370" y="300" as="sourcePoint" />
            <mxPoint x="450" y="300" as="targetPoint" />
            <mxPoint as="offset" />
          </mxGeometry>
        </mxCell>
        <mxCell id="KtAMPXiXac6CL4gWcL4E-34" value="KiemTraThongTin()" style="html=1;verticalAlign=bottom;endArrow=block;exitX=1.15;exitY=0.229;exitDx=0;exitDy=0;exitPerimeter=0;" edge="1" parent="1" source="KtAMPXiXac6CL4gWcL4E-31" target="KtAMPXiXac6CL4gWcL4E-33">
          <mxGeometry x="0.1342" y="4" width="80" relative="1" as="geometry">
            <mxPoint x="370" y="300" as="sourcePoint" />
            <mxPoint x="707" y="200" as="targetPoint" />
            <mxPoint as="offset" />
          </mxGeometry>
        </mxCell>
        <mxCell id="KtAMPXiXac6CL4gWcL4E-37" value="XacNhanHopLe()" style="html=1;verticalAlign=bottom;endArrow=open;dashed=1;endSize=8;" edge="1" parent="1" source="KtAMPXiXac6CL4gWcL4E-18" target="KtAMPXiXac6CL4gWcL4E-17">
          <mxGeometry relative="1" as="geometry">
            <mxPoint x="670" y="260" as="sourcePoint" />
            <mxPoint x="590" y="260" as="targetPoint" />
          </mxGeometry>
        </mxCell>
        <mxCell id="KtAMPXiXac6CL4gWcL4E-40" value="&amp;lt;&amp;lt;create&amp;gt;&amp;gt;(SanPham)" style="html=1;verticalAlign=bottom;endArrow=block;entryX=0;entryY=0.5;entryDx=0;entryDy=0;" edge="1" parent="1" source="KtAMPXiXac6CL4gWcL4E-17">
          <mxGeometry width="80" relative="1" as="geometry">
            <mxPoint x="370" y="300" as="sourcePoint" />
            <mxPoint x="640" y="325" as="targetPoint" />
          </mxGeometry>
        </mxCell>
        <mxCell id="KtAMPXiXac6CL4gWcL4E-41" value="SanPham" style="text;html=1;align=center;verticalAlign=middle;resizable=0;points=[];autosize=1;" vertex="1" parent="1">
          <mxGeometry x="675" y="60" width="70" height="20" as="geometry" />
        </mxCell>
        <mxCell id="KtAMPXiXac6CL4gWcL4E-42" value="ThongBaoThanhCong()" style="html=1;verticalAlign=bottom;endArrow=open;dashed=1;endSize=8;exitX=-0.25;exitY=0.694;exitDx=0;exitDy=0;exitPerimeter=0;" edge="1" parent="1" source="KtAMPXiXac6CL4gWcL4E-31" target="KtAMPXiXac6CL4gWcL4E-10">
          <mxGeometry x="-0.02" y="-10" relative="1" as="geometry">
            <mxPoint x="450" y="300" as="sourcePoint" />
            <mxPoint x="370" y="300" as="targetPoint" />
            <mxPoint as="offset" />
          </mxGeometry>
        </mxCell>
        <mxCell id="KtAMPXiXac6CL4gWcL4E-44" value="BangThemSanPham" style="text;html=1;align=center;verticalAlign=middle;resizable=0;points=[];autosize=1;" vertex="1" parent="1">
          <mxGeometry x="190" y="60" width="130" height="20" as="geometry" />
        </mxCell>
        <mxCell id="KtAMPXiXac6CL4gWcL4E-50" value="&amp;lt;&amp;lt;create&amp;gt;&amp;gt;SanPham" style="html=1;verticalAlign=bottom;endArrow=block;exitX=1.083;exitY=0.543;exitDx=0;exitDy=0;exitPerimeter=0;entryX=0;entryY=0.75;entryDx=0;entryDy=0;" edge="1" parent="1" source="KtAMPXiXac6CL4gWcL4E-14">
          <mxGeometry width="80" relative="1" as="geometry">
            <mxPoint x="370" y="300" as="sourcePoint" />
            <mxPoint x="370" y="125" as="targetPoint" />
          </mxGeometry>
        </mxCell>
        <mxCell id="KtAMPXiXac6CL4gWcL4E-51" value="" style="shape=umlLifeline;perimeter=lifelinePerimeter;whiteSpace=wrap;html=1;container=1;collapsible=0;recursiveResize=0;outlineConnect=0;" vertex="1" parent="1">
          <mxGeometry x="370" y="100" width="60" height="400" as="geometry" />
        </mxCell>
        <mxCell id="KtAMPXiXac6CL4gWcL4E-52" value="" style="shape=umlLifeline;perimeter=lifelinePerimeter;whiteSpace=wrap;html=1;container=1;collapsible=0;recursiveResize=0;outlineConnect=0;" vertex="1" parent="1">
          <mxGeometry x="650" y="300" width="50" height="150" as="geometry" />
        </mxCell>
        <mxCell id="KtAMPXiXac6CL4gWcL4E-53" value="" style="shape=umlDestroy;whiteSpace=wrap;html=1;strokeWidth=3;" vertex="1" parent="1">
          <mxGeometry x="385" y="490" width="30" height="30" as="geometry" />
        </mxCell>
        <mxCell id="KtAMPXiXac6CL4gWcL4E-57" value="LuuTruSanPham()" style="html=1;verticalAlign=bottom;endArrow=block;exitX=1.25;exitY=0.634;exitDx=0;exitDy=0;exitPerimeter=0;" edge="1" parent="1" source="KtAMPXiXac6CL4gWcL4E-31" target="KtAMPXiXac6CL4gWcL4E-33">
          <mxGeometry width="80" relative="1" as="geometry">
            <mxPoint x="370" y="390" as="sourcePoint" />
            <mxPoint x="450" y="390" as="targetPoint" />
          </mxGeometry>
        </mxCell>
        <mxCell id="KtAMPXiXac6CL4gWcL4E-59" value="XacNhanKhongHopLe()" style="html=1;verticalAlign=bottom;endArrow=open;dashed=1;endSize=8;exitX=0.2;exitY=0.858;exitDx=0;exitDy=0;exitPerimeter=0;entryX=0.95;entryY=0.791;entryDx=0;entryDy=0;entryPerimeter=0;" edge="1" parent="1" source="KtAMPXiXac6CL4gWcL4E-33" target="KtAMPXiXac6CL4gWcL4E-31">
          <mxGeometry relative="1" as="geometry">
            <mxPoint x="450" y="380" as="sourcePoint" />
            <mxPoint x="370" y="380" as="targetPoint" />
          </mxGeometry>
        </mxCell>
        <mxCell id="KtAMPXiXac6CL4gWcL4E-60" value="ThongBaoKhongHopLe()" style="html=1;verticalAlign=bottom;endArrow=open;dashed=1;endSize=8;exitX=0.25;exitY=0.938;exitDx=0;exitDy=0;exitPerimeter=0;" edge="1" parent="1" source="KtAMPXiXac6CL4gWcL4E-31" target="KtAMPXiXac6CL4gWcL4E-10">
          <mxGeometry relative="1" as="geometry">
            <mxPoint x="450" y="380" as="sourcePoint" />
            <mxPoint x="370" y="380" as="targetPoint" />
          </mxGeometry>
        </mxCell>
        <mxCell id="KtAMPXiXac6CL4gWcL4E-61" value="" style="html=1;verticalAlign=bottom;endArrow=open;dashed=1;endSize=8;entryX=1.3;entryY=0.979;entryDx=0;entryDy=0;entryPerimeter=0;" edge="1" parent="1" source="KtAMPXiXac6CL4gWcL4E-10" target="KtAMPXiXac6CL4gWcL4E-13">
          <mxGeometry relative="1" as="geometry">
            <mxPoint x="450" y="380" as="sourcePoint" />
            <mxPoint x="370" y="380" as="targetPoint" />
          </mxGeometry>
        </mxCell>
        <mxCell id="KtAMPXiXac6CL4gWcL4E-54" value="" style="shape=umlDestroy;whiteSpace=wrap;html=1;strokeWidth=3;" vertex="1" parent="1">
          <mxGeometry x="660" y="440" width="30" height="30" as="geometry" />
        </mxCell>
        <mxCell id="KtAMPXiXac6CL4gWcL4E-62" value="Success" style="text;html=1;strokeColor=none;fillColor=none;align=center;verticalAlign=middle;whiteSpace=wrap;rounded=0;" vertex="1" parent="1">
          <mxGeometry x="160" y="310" width="40" height="20" as="geometry" />
        </mxCell>
        <mxCell id="KtAMPXiXac6CL4gWcL4E-63" value="Fail" style="text;html=1;strokeColor=none;fillColor=none;align=center;verticalAlign=middle;whiteSpace=wrap;rounded=0;" vertex="1" parent="1">
          <mxGeometry x="160" y="440" width="40" height="20" as="geometry" />
        </mxCell>
      </root>
    </mxGraphModel>
  </diagram>
</mxfile>
